<svg id="Layer_1" data-name="Layer 1" xmlns="http://www.w3.org/2000/svg" viewBox="0 0 813 140"><defs><style>.cls-1{fill:#f9b878;}.cls-2{fill:#f17d21;}.cls-3{fill:#acc4e2;}.cls-4{fill:#1679b5;}.cls-5{fill:#d42928;}.cls-6{fill:#c6925f;}.cls-7{fill:#be631a;}.cls-8{fill:#8598af;}.cls-9{fill:#105782;}.cls-10{fill:#a11f1e;}</style></defs><title>logo-lightbg</title><path d="M124,17.24h13.36V69.75h.3l37.49-52.51H190L157.21,62.47l35.52,63.14H177.86l-29.3-52.22L137.33,88.72v36.89H124Z"/><path d="M199.87,17.24h56V29.07H213.22v34h40.22V74.91H213.22v38.86h44.47v11.84H199.87Z"/><path d="M270.14,17.24H305.2c17,0,27.78,10,27.78,27.16,0,11.84-4.1,24.29-16.7,27.32V72c9.41,1.06,14.72,8.8,15.33,18.06l.91,18.52c.61,12,2.58,15,5.77,17H322.2c-2.28-2.28-3.34-10.32-3.64-15.64l-.91-16.84c-1.07-14.88-9.26-15.79-16.09-15.79H283.5v48.27H270.14ZM283.5,66.41h13.2c7.89,0,22.31,0,22.31-20.94,0-10.63-7.13-17.31-19.58-17.31H283.5Z"/><path d="M348.92,17.24h17.3L402,107.7h.3V17.24H415.7V125.61H397.33L362.58,37.88h-.31v87.73H348.92Z"/><path d="M489,48.35c0-14.57-7.74-27.78-23.68-27.78-21.55,0-28.68,20.19-28.68,50.7,0,29.14,5.92,51,27.77,51,20.95,0,26-24.59,26-33.09h6.37c0,12.75-6.37,38.25-33.39,38.25-23.53,0-33.09-20.8-33.09-55.86,0-34,9.56-56.16,34.76-56.16,25.35,0,30.35,22.32,30.35,32.94Z"/><path d="M509.65,17.24h31.73c15,0,26.86,8.65,26.86,28.38,0,14.27-7.59,25.34-21.7,26.86v.31c17.75,1.06,20.94,12,20.94,26.86V111c0,6.22.91,10.16,3.64,14.57h-7.28c-1.67-3.19-2.73-8.35-2.73-14.73V99.8c0-15.48-4.25-24.43-21.71-24.43H516v50.24h-6.38Zm26.72,53c12,0,25.5-3.95,25.5-24.59,0-14.57-8.2-23.22-21.41-23.22H516V70.21Z"/><path d="M633.2,91.91H592.38l-10.33,33.7h-6.37L609.37,17.24h8L649.9,125.61h-6.38Zm-19.88-68.3H613L593.89,86.75H632Z"/><path d="M658.55,17.24h51.91V23H664.92V66.26h42.35V72H664.92v53.58h-6.37Z"/><path d="M740.21,23H710.46V17.24h65V23H746.58V125.61h-6.37Z"/><rect class="cls-1" x="14.95" y="17.39" width="93.94" height="12"/><rect class="cls-2" x="56.86" y="41.39" width="52.03" height="12"/><rect class="cls-3" x="78.18" y="65.39" width="30.71" height="12"/><rect class="cls-4" x="90.18" y="89.39" width="18.71" height="12"/><rect class="cls-5" x="96.89" y="113.39" width="12" height="12"/><polygon class="cls-6" points="112.86 24.39 108.89 29.39 108.89 17.39 112.86 12.39 112.86 24.39"/><polygon class="cls-7" points="112.86 48.39 108.89 53.39 108.89 41.39 112.86 36.39 112.86 48.39"/><polygon class="cls-8" points="112.86 72.39 108.89 77.39 108.89 65.39 112.86 60.39 112.86 72.39"/><polygon class="cls-9" points="112.86 96.39 108.89 101.39 108.89 89.39 112.86 84.39 112.86 96.39"/><polygon class="cls-10" points="112.86 120.39 108.89 125.39 108.89 113.39 112.86 108.39 112.86 120.39"/></svg>